# xmcd
#
# Track frame offsets: 
#        150
#        12863
#        26150
#        39100
#        50843
#        62383
#        74668
#        87575
#        101903
#        114463
#        127698
#        142500
#        156760
#        168970
#        183385
#        196703
#        210543
#        224650
#        237675
#        249943
#        261835
#        273930
#        287248
#        304478
#        319028
#
# Disc length: 4411 seconds
#
# Revision: 6
# Processed by: cddbd v1.5.1PL0 Copyright (c) Steve Scherf et al.
# Submitted via: ExactAudioCopy v0.95a5
#
DISCID=6c113919
DTITLE=Various Artist - Chess Blues [CD1: 1947-1952)
DYEAR=1992
DGENRE=Blues
TTITLE0=Clarence Samuels - Lollypop Mama
TTITLE1=Andrew Tibbs - Bilbo Is Dead
TTITLE2=Sunnyland Slim - Johnson Machine Gun
TTITLE3=Sunnyland Slim - Fly Right, Little Girl
TTITLE4=Muddy Waters - Little Anna Mae
TTITLE5=Muddy Waters - I Can't Be Satisfied
TTITLE6=Robert Nighthawk - My Sweet Lovin' Woman
TTITLE7=Muddy Waters - I Feel Like Going Home
TTITLE8=Sunnyland Slim - She Ain't Nowhere
TTITLE9=St. Louis Jimmy - Florida Hurricane
TTITLE10=Forest City Joe - Memory Of Sonny Boy
TTITLE11=Forrest Sykes - Tonky Boogie
TTITLE12=Laura Rucker - Cryin' The Blues
TTITLE13=Baby Face Leroy - My Head Can't Rest Anymore
TTITLE14=Little Johnny Jones - Big Town Playboy
TTITLE15=Robert Nighthawk - Sweet Black Angel
TTITLE16=Muddy Waters - Rollin' Stone
TTITLE17=Jimmy Rogers - Luedella
TTITLE18=Memphis Slim - Mother Earth
TTITLE19=Dr. Isaiah Ross - Dr. Ross' Boogie
TTITLE20=Johnny Shines - Joliet Blues
TTITLE21=Howlin' Wolf - Moanin' At Midnight
TTITLE22=Muddy Waters - All Night Long (Alternate)
TTITLE23=Arbee Stidham - Mr. Commissioner (Alternate)
TTITLE24=Howlin' Wolf - Gettin' Old And Grey
EXTD=ID3G:   0
EXTT0=
EXTT1=
EXTT2=
EXTT3=
EXTT4=
EXTT5=
EXTT6=
EXTT7=
EXTT8=
EXTT9=
EXTT10=
EXTT11=
EXTT12=
EXTT13=
EXTT14=
EXTT15=
EXTT16=
EXTT17=
EXTT18=
EXTT19=
EXTT20=
EXTT21=
EXTT22=
EXTT23=
EXTT24=
PLAYORDER=
